<svg xmlns="http://www.w3.org/2000/svg">
    <symbol id="heart" viewBox="0 0 24 24" fill="none"
            stroke="currentColor" stroke-width="2" stroke-linecap="round"
            stroke-linejoin="round" class="lucide lucide-heart"
    >
        <g>
            <path d="M19 14c1.49-1.46 3-3.21 3-5.5A5.5 5.5 0 0 0 16.5 3c-1.76 0-3 .5-4.5 2-1.5-1.5-2.74-2-4.5-2A5.5 5.5 0 0 0 2 8.5c0 2.3 1.5 4.05 3 5.5l7 7Z"/>
        </g>
    </symbol>
    <symbol id="comment" viewBox="0 0 21 21" fill="none">
        <g>
            <path d="M1 19.0022L2.9 13.3022C1.99713 11.497 1.76612 9.42939 2.2483 7.46942C2.73049 5.50944 3.8944 3.78502 5.53176 2.60474C7.16911 1.42446 9.17304 0.865353 11.1849 1.02748C13.1968 1.1896 15.0854 2.06237 16.5126 3.4896C17.9398 4.91684 18.8126 6.80538 18.9747 8.81727C19.1369 10.8292 18.5777 12.8331 17.3975 14.4704C16.2172 16.1078 14.4928 17.2717 12.5328 17.7539C10.5728 18.2361 8.50522 18.0051 6.7 17.1022L1 19.0022Z"
                  stroke="currentColor"
                  stroke-width="2"
                  stroke-linecap="round"
                  stroke-linejoin="round"
            />
        </g>
    </symbol>
    <symbol id="eye" viewBox="0 0 24 24" fill="none">
        <g>
            <path d="M2 12C2 12 5 5 12 5C19 5 22 12 22 12C22 12 19 19 12 19C5 19 2 12 2 12Z" stroke="black" stroke-width="2" stroke-linecap="round" stroke-linejoin="round"/>
            <path d="M12 15C13.6569 15 15 13.6569 15 12C15 10.3431 13.6569 9 12 9C10.3431 9 9 10.3431 9 12C9 13.6569 10.3431 15 12 15Z" stroke="black" stroke-width="2" stroke-linecap="round" stroke-linejoin="round"/>
        </g>
    </symbol>
    <symbol id="google" viewBox="0 0 48 48">
        <g>
            <path fill="#FFC107" d="M43.611,20.083H42V20H24v8h11.303c-1.649,4.657-6.08,8-11.303,8c-6.627,0-12-5.373-12-12c0-6.627,5.373-12,12-12c3.059,0,5.842,1.154,7.961,3.039l5.657-5.657C34.046,6.053,29.268,4,24,4C12.955,4,4,12.955,4,24c0,11.045,8.955,20,20,20c11.045,0,20-8.955,20-20C44,22.659,43.862,21.35,43.611,20.083z"/>
            <path fill="#FF3D00" d="M6.306,14.691l6.571,4.819C14.655,15.108,18.961,12,24,12c3.059,0,5.842,1.154,7.961,3.039l5.657-5.657C34.046,6.053,29.268,4,24,4C16.318,4,9.656,8.337,6.306,14.691z"/>
            <path fill="#4CAF50" d="M24,44c5.166,0,9.86-1.977,13.409-5.192l-6.19-5.238C29.211,35.091,26.715,36,24,36c-5.202,0-9.619-3.317-11.283-7.946l-6.522,5.025C9.505,39.556,16.227,44,24,44z"/>
            <path fill="#1976D2" d="M43.611,20.083H42V20H24v8h11.303c-0.792,2.237-2.231,4.166-4.087,5.571c0.001-0.001,0.002-0.001,0.003-0.002l6.19,5.238C36.971,39.205,44,34,44,24C44,22.659,43.862,21.35,43.611,20.083z"/>
        </g>
    </symbol>
    <symbol id="vk" viewBox="0 0 48 48">
        <g>
            <path fill="#1976d2" d="M24 4A20 20 0 1 0 24 44A20 20 0 1 0 24 4Z"/>
            <path fill="#fff" d="M35.937,18.041c0.046-0.151,0.068-0.291,0.062-0.416C35.984,17.263,35.735,17,35.149,17h-2.618 c-0.661,0-0.966,0.4-1.144,0.801c0,0-1.632,3.359-3.513,5.574c-0.61,0.641-0.92,0.625-1.25,0.625C26.447,24,26,23.786,26,23.199 v-5.185C26,17.32,25.827,17,25.268,17h-4.649C20.212,17,20,17.32,20,17.641c0,0.667,0.898,0.827,1,2.696v3.623 C21,24.84,20.847,25,20.517,25c-0.89,0-2.642-3-3.815-6.932C16.448,17.294,16.194,17,15.533,17h-2.643 C12.127,17,12,17.374,12,17.774c0,0.721,0.6,4.619,3.875,9.101C18.25,30.125,21.379,32,24.149,32c1.678,0,1.85-0.427,1.85-1.094 v-2.972C26,27.133,26.183,27,26.717,27c0.381,0,1.158,0.25,2.658,2c1.73,2.018,2.044,3,3.036,3h2.618 c0.608,0,0.957-0.255,0.971-0.75c0.003-0.126-0.015-0.267-0.056-0.424c-0.194-0.576-1.084-1.984-2.194-3.326 c-0.615-0.743-1.222-1.479-1.501-1.879C32.062,25.36,31.991,25.176,32,25c0.009-0.185,0.105-0.361,0.249-0.607 C32.223,24.393,35.607,19.642,35.937,18.041z"/>
        </g>
    </symbol>
    <symbol id="github" viewBox="0 0 48 48">
        <g>
            <path d="M44,24c0,8.96-5.88,16.54-14,19.08V38c0-1.71-0.72-3.24-1.86-4.34c5.24-0.95,7.86-4,7.86-9.66c0-2.45-0.5-4.39-1.48-5.9 c0.44-1.71,0.7-4.14-0.52-6.1c-2.36,0-4.01,1.39-4.98,2.53C27.57,14.18,25.9,14,24,14c-1.8,0-3.46,0.2-4.94,0.61 C18.1,13.46,16.42,12,14,12c-1.42,2.28-0.84,4.74-0.3,6.12C12.62,19.63,12,21.57,12,24c0,5.66,2.62,8.71,7.86,9.66 c-0.67,0.65-1.19,1.44-1.51,2.34H16c-1.44,0-2-0.64-2.77-1.68c-0.77-1.04-1.6-1.74-2.59-2.03c-0.53-0.06-0.89,0.37-0.42,0.75 c1.57,1.13,1.68,2.98,2.31,4.19C13.1,38.32,14.28,39,15.61,39H18v4.08C9.88,40.54,4,32.96,4,24C4,12.95,12.95,4,24,4 S44,12.95,44,24z"/>
        </g>
    </symbol>
    <symbol id="fire" viewBox="0 0 24 24" fill="none" stroke="currentColor"
            stroke-width="2" stroke-linecap="round" stroke-linejoin="round"
            class="lucide lucide-flame"
    >
        <g>
            <path d="M8.5 14.5A2.5 2.5 0 0 0 11 12c0-1.38-.5-2-1-3-1.072-2.143-.224-4.054 2-6 .5 2.5 2 4.9 4 6.5 2 1.6 3 3.5 3 5.5a7 7 0 1 1-14 0c0-1.153.433-2.294 1-3a2.5 2.5 0 0 0 2.5 2.5z"/>
        </g>
    </symbol>
    <symbol id="clock" viewBox="0 0 20 21" fill="none">
        <g>
            <path d="M10 18.9999C14.6024 18.9999 18.3334 15.269 18.3334 10.6666C18.3334 6.06421 14.6024 2.33325 10 2.33325C5.39765 2.33325 1.66669 6.06421 1.66669 10.6666C1.66669 15.269 5.39765 18.9999 10 18.9999Z" stroke="black" stroke-width="2" stroke-linecap="round" stroke-linejoin="round"/>
            <path d="M10 5.66663V10.6666H13.75" stroke="black" stroke-width="2" stroke-linecap="round" stroke-linejoin="round"/>
        </g>
    </symbol>
    <symbol id="bookmark" viewBox="0 0 20 21" fill="none">
        <g>
            <path d="M15.8334 17.8334L10 14.5L4.16669 17.8334V4.50004C4.16669 4.05801 4.34228 3.63409 4.65484 3.32153C4.9674 3.00897 5.39133 2.83337 5.83335 2.83337H14.1667C14.6087 2.83337 15.0326 3.00897 15.3452 3.32153C15.6578 3.63409 15.8334 4.05801 15.8334 4.50004V17.8334Z" stroke="black" stroke-width="2" stroke-linecap="round" stroke-linejoin="round"/>
        </g>
    </symbol>
    <symbol id="list" viewBox="0 0 20 20" fill="none">
        <g>
            <path d="M6.66669 5H17.5" stroke="black" stroke-width="2" stroke-linecap="round" stroke-linejoin="round"/>
            <path d="M6.66669 10H17.5" stroke="black" stroke-width="2" stroke-linecap="round" stroke-linejoin="round"/>
            <path d="M6.66669 15H17.5" stroke="black" stroke-width="2" stroke-linecap="round" stroke-linejoin="round"/>
            <path d="M2.5 5H2.50833" stroke="black" stroke-width="2" stroke-linecap="round" stroke-linejoin="round"/>
            <path d="M2.5 10H2.50833" stroke="black" stroke-width="2" stroke-linecap="round" stroke-linejoin="round"/>
            <path d="M2.5 15H2.50833" stroke="black" stroke-width="2" stroke-linecap="round" stroke-linejoin="round"/>
        </g>
    </symbol>
    <symbol id="menu" viewBox="0 0 24 24" fill="none" stroke="currentColor" stroke-width="2" stroke-linecap="round" stroke-linejoin="round">
        <g>
            <circle cx="12" cy="12" r="1"/>
            <circle cx="19" cy="12" r="1"/>
            <circle cx="5" cy="12" r="1"/>
        </g>
    </symbol>
    <symbol id="close" viewBox="0 0 24 24" fill="none" stroke="currentColor" stroke-width="2" stroke-linecap="round" stroke-linejoin="round">
        <g>
            <path d="M18 6 6 18"/><path d="m6 6 12 12"/>
        </g>
    </symbol>
</svg>